<svg width="73" height="77" viewBox="0 0 73 77" fill="none" xmlns="http://www.w3.org/2000/svg">
<path d="M26.518 26.4965V31.141H24.2055C23.061 31.141 22.1235 32.0785 22.1235 33.223V50.661C22.1235 51.8055 23.061 52.743 24.2055 52.743H48.6005C49.745 52.743 50.6825 51.8055 50.6825 50.661V33.227C50.6825 32.0825 49.745 31.145 48.6005 31.145H46.288V26.5005C46.288 21.0435 41.8505 16.606 36.3935 16.606C30.9326 16.6021 26.518 21.0395 26.518 26.4965ZM46.538 48.5785H26.308V35.3085H46.558V48.5785H46.538ZM42.1435 26.4965V31.141H30.6865V26.4965C30.6865 23.3285 33.249 20.766 36.417 20.766C39.5811 20.766 42.1435 23.3285 42.1435 26.4965Z" fill="white"/>
<path d="M72.808 11.7275C72.808 10.79 72.183 9.9775 71.2885 9.7275L36.9765 0.0791025C36.6015 -0.0263675 36.2265 -0.0263675 35.8515 0.0791025L1.5195 9.7275C0.62497 9.9775 0 10.79 0 11.7275V31.4775C0 48.4775 9.8945 64.2475 25.188 71.6655L35.5 76.6655C35.793 76.81 36.1055 76.8725 36.418 76.8725C36.7305 76.8725 37.043 76.81 37.3359 76.6655L47.6479 71.6655C62.9409 64.2475 72.8359 48.4775 72.8359 31.4775L72.832 11.7275H72.808ZM68.6439 31.4775C68.6439 46.8955 59.6869 61.2075 45.8119 67.9155L36.4135 72.478L27.019 67.9155C13.144 61.185 4.183 46.8925 4.183 31.4775V13.3095L36.413 4.247L68.643 13.3095L68.6439 31.4775Z" fill="white"/>
</svg>
