<svg width="78" height="78" viewBox="0 0 78 78" fill="none" xmlns="http://www.w3.org/2000/svg">
<path d="M38.6821 26.1759C43.6313 26.1759 47.6548 22.1486 47.6548 17.2032C47.6548 12.254 43.6275 8.23046 38.6821 8.23046C33.7329 8.23046 29.7094 12.2578 29.7094 17.2032C29.7094 22.1524 33.7367 26.1759 38.6821 26.1759ZM38.6821 10.6989C42.268 10.6989 45.1821 13.6169 45.1821 17.1989C45.1821 20.7848 42.2641 23.6989 38.6821 23.6989C35.0962 23.6989 32.1821 20.7809 32.1821 17.1989C32.1821 13.613 35.1001 10.6989 38.6821 10.6989ZM28.1201 47.2069V54.4296C28.1201 55.1132 27.5654 55.6679 26.8818 55.6679C26.1982 55.6679 25.6435 55.1132 25.6435 54.4296V47.2069C25.6435 46.5233 26.1982 45.9686 26.8818 45.9686C27.5654 45.9686 28.1201 46.5233 28.1201 47.2069ZM21.2334 45.9686H18.8389C17.4639 45.9686 16.3428 47.0897 16.3428 48.4647V53.1717C16.3428 54.5467 17.4639 55.6678 18.8389 55.6678H21.2334C22.6084 55.6678 23.7295 54.5467 23.7295 53.1717V48.4647C23.7295 47.0897 22.6084 45.9686 21.2334 45.9686ZM21.253 53.1717C21.253 53.1834 21.2451 53.1951 21.2295 53.1951H18.835C18.8233 53.1951 18.8116 53.1873 18.8116 53.1717V48.4647C18.8116 48.4529 18.8194 48.4412 18.835 48.4412H21.2295C21.2412 48.4412 21.253 48.4529 21.253 48.4647V53.1717ZM16.3428 43.6053V36.3826C16.3428 35.699 16.8974 35.1443 17.5811 35.1443C18.2646 35.1443 18.8194 35.699 18.8194 36.3826V43.6053C18.8194 44.2889 18.2647 44.8436 17.5811 44.8436C16.8975 44.8436 16.3428 44.2889 16.3428 43.6053ZM25.624 35.1444H23.2295C21.8545 35.1444 20.7334 36.2655 20.7334 37.6405V42.3475C20.7334 43.7225 21.8545 44.8436 23.2295 44.8436H25.624C26.999 44.8436 28.1201 43.7225 28.1201 42.3475V37.6405C28.1201 36.2655 26.999 35.1444 25.624 35.1444ZM25.6474 42.3475C25.6474 42.3592 25.6396 42.3709 25.624 42.3709H23.2295C23.2177 42.3709 23.206 42.3592 23.206 42.3475V37.6405C23.206 37.6287 23.2138 37.617 23.2295 37.617H25.624C25.6357 37.617 25.6474 37.6248 25.6474 37.6405V42.3475ZM72.2884 42.4021C72.2884 43.0857 71.7337 43.6404 71.0501 43.6404H68.3118C67.6282 43.6404 67.0735 43.0858 67.0735 42.4021C67.0735 41.7186 67.6282 41.1639 68.3118 41.1639H71.0501C71.7337 41.1639 72.2884 41.7185 72.2884 42.4021ZM72.2884 54.9021C72.2884 55.5857 71.7337 56.1405 71.0501 56.1405H68.3118C67.6282 56.1405 67.0735 55.5858 67.0735 54.9021C67.0735 54.2186 67.6282 53.6639 68.3118 53.6639H71.0501C71.7337 53.6639 72.2884 54.2185 72.2884 54.9021ZM72.2884 48.6521C72.2884 49.3357 71.7337 49.8904 71.0501 49.8904H68.3118C67.6282 49.8904 67.0735 49.3358 67.0735 48.6521C67.0735 47.9686 67.6282 47.4139 68.3118 47.4139H71.0501C71.7337 47.4139 72.2884 47.9685 72.2884 48.6521ZM72.2884 61.1482C72.2884 61.8317 71.7337 62.3864 71.0501 62.3864H68.3118C67.6282 62.3864 67.0735 61.8318 67.0735 61.1482C67.0735 60.4645 67.6282 59.9098 68.3118 59.9098H71.0501C71.7337 59.9098 72.2884 60.4645 72.2884 61.1482ZM72.2103 15.9022H54.0973C54.4879 15.5857 54.8434 15.2459 55.1559 14.8788C55.7731 14.1561 55.9254 13.16 55.5582 12.2733L53.9059 8.28495C53.6872 7.7537 53.2184 7.37479 52.652 7.26935C51.7106 7.09357 50.7379 7.10138 49.7497 7.28498C49.3747 6.86701 48.9763 6.46857 48.5583 6.09748C48.7419 5.12092 48.7575 4.16388 48.6052 3.24978C48.5075 2.67165 48.1286 2.19118 47.5857 1.96858L43.1443 0.128776C42.6169 -0.0899735 42.0154 -0.0274729 41.5427 0.296747C40.7536 0.835807 40.0661 1.53115 39.4997 2.36315C38.9411 2.3319 38.3786 2.3319 37.82 2.36705C37.3903 1.73814 36.902 1.19125 36.3591 0.730352C35.6364 0.113162 34.6403 -0.0391776 33.7575 0.328012L29.7692 1.98031C29.2418 2.19906 28.859 2.66781 28.7536 3.23031C28.5778 4.17172 28.5856 5.14441 28.7692 6.13261C28.3512 6.5037 27.9528 6.90605 27.5817 7.32401C26.6052 7.14042 25.6481 7.12479 24.734 7.27714C24.1559 7.3748 23.6754 7.7537 23.4528 8.29664L21.613 12.7419C21.3943 13.2693 21.4568 13.8708 21.781 14.3435C22.32 15.1326 23.0154 15.8201 23.8474 16.3865C23.8161 16.9451 23.8161 17.5076 23.8513 18.0662C23.031 18.6287 22.3435 19.2928 21.8044 20.0467C21.4645 20.5233 21.3942 21.1326 21.6208 21.6756L22.8356 24.6131H5.1406C2.3047 24.6131 0 26.9178 0 29.7537V63.3517C0 66.1876 2.3047 68.4923 5.1406 68.4923H18.7856V71.547H18.7426C17.1137 71.547 15.7934 72.8712 15.7934 74.4962C15.7934 76.1251 17.1176 77.4454 18.7426 77.4454H40.3166C41.9455 77.4454 43.2658 76.1212 43.2658 74.4962C43.2658 72.8673 41.9416 71.547 40.3166 71.547H40.2737V68.4923H48.594V71.6485C48.594 74.4923 50.9065 76.8047 53.7502 76.8047H72.2152C75.059 76.8047 77.3714 74.4922 77.3714 71.6485L77.3675 21.0585C77.3675 18.2147 75.055 15.9023 72.2113 15.9023L72.2103 15.9022ZM25.5653 9.65995C26.1629 9.60917 26.7801 9.65995 27.4364 9.8162C28.0926 9.96854 28.7684 9.74589 29.1981 9.23417C29.659 8.6873 30.1668 8.17557 30.7137 7.71857C31.2137 7.3006 31.4285 6.64047 31.2723 6.00377C31.1082 5.33971 31.0613 4.70687 31.1238 4.08967L34.7019 2.60917C34.7254 2.60136 34.7449 2.60527 34.7527 2.60917C35.2097 2.9998 35.6043 3.46464 35.9558 4.03887C36.3035 4.60528 36.9285 4.91778 37.5886 4.85918C38.3034 4.79668 39.03 4.79668 39.7488 4.85918C40.4011 4.91387 41.0183 4.60137 41.3582 4.03887C41.7137 3.45293 42.1238 2.97247 42.6043 2.58187L46.2176 4.07797C46.2684 4.67563 46.2176 5.29277 46.0614 5.94907C45.909 6.60532 46.1317 7.28107 46.6434 7.71077C47.1903 8.1678 47.702 8.67952 48.159 9.22637C48.577 9.72637 49.2332 9.94121 49.8738 9.78496C50.5378 9.6209 51.1707 9.57402 51.7879 9.63652L53.2684 13.2146C53.2762 13.2381 53.2723 13.2576 53.2684 13.2654C52.8778 13.7224 52.4129 14.117 51.8387 14.4685C51.2723 14.8162 50.9598 15.4412 51.0184 16.1013C51.0809 16.8161 51.0809 17.5427 51.0184 18.2615C50.9598 18.9138 51.2762 19.531 51.8387 19.8709C52.4246 20.2264 52.9051 20.6365 53.2957 21.117L51.7996 24.7303C51.2019 24.7811 50.5848 24.7303 49.9285 24.5741C49.2722 24.4217 48.5965 24.6444 48.1668 25.1561C47.7058 25.703 47.198 26.2147 46.6512 26.6717C46.1512 27.0897 45.9363 27.7498 46.0926 28.3865C46.2567 29.0505 46.3035 29.6795 46.241 30.3006L42.6277 31.7967C42.1551 31.3982 41.7488 30.9139 41.3855 30.3162C41.0574 29.7771 40.4402 29.4646 39.8152 29.5232C39.0848 29.5896 38.3464 29.5935 37.616 29.5271C36.9637 29.4685 36.3465 29.7849 36.0066 30.3474C35.6512 30.9334 35.241 31.4138 34.7605 31.8044L31.1472 30.3083C31.0965 29.7107 31.1472 29.0935 31.3035 28.4372C31.4558 27.781 31.2332 27.1052 30.7215 26.6716C30.1746 26.2107 29.6629 25.7029 29.2059 25.156C28.7879 24.656 28.1278 24.4412 27.4911 24.5974C26.827 24.7615 26.1942 24.8084 25.577 24.7459L24.0809 21.1326C24.4793 20.6599 24.9676 20.2537 25.5614 19.8904C26.1004 19.5623 26.4129 18.9451 26.3543 18.3162C26.2879 17.5896 26.284 16.8474 26.3504 16.117C26.409 15.4646 26.0926 14.8475 25.5301 14.5076C24.9442 14.1521 24.4637 13.742 24.0731 13.2615L25.5692 9.64818L25.5653 9.65995ZM2.47127 29.754C2.47127 28.2813 3.66657 27.086 5.13927 27.086H24.5263C24.5849 27.1055 24.6474 27.1211 24.706 27.1328C25.6474 27.3086 26.6201 27.3047 27.6083 27.1172C27.9833 27.5352 28.3817 27.9336 28.7997 28.3047C28.6161 29.2813 28.6004 30.2383 28.7528 31.1563C28.8504 31.7344 29.2293 32.2149 29.7723 32.4375L34.2176 34.2773C34.4285 34.3632 34.6473 34.4062 34.866 34.4062C35.202 34.4062 35.534 34.3046 35.8191 34.1093C36.6082 33.5703 37.2957 32.8749 37.8621 32.0429C38.4207 32.0742 38.9832 32.0742 39.5418 32.039C40.1043 32.8593 40.7684 33.5468 41.5223 34.0859C41.9989 34.4258 42.6082 34.4961 43.1512 34.2695L47.5926 32.4297C48.1239 32.211 48.5028 31.7422 48.6082 31.1758C48.784 30.2344 48.7762 29.2617 48.5926 28.2735C49.0106 27.9024 49.4051 27.5001 49.7801 27.0821C50.7567 27.2657 51.7137 27.2813 52.6278 27.129C52.6903 27.1173 52.7528 27.1016 52.8153 27.086H53.9091C55.3818 27.086 56.5771 28.2813 56.5771 29.754V60.563H2.47212L2.47127 29.754ZM40.3113 74.02C40.573 74.02 40.7878 74.2348 40.7878 74.4965C40.7878 74.7582 40.573 74.9731 40.3113 74.9731H18.7373C18.4756 74.9731 18.2607 74.7582 18.2607 74.4965C18.2607 74.2348 18.4756 74.02 18.7373 74.02H40.3113ZM21.2563 71.5473V68.4926H37.7953V71.5473H21.2563ZM5.13927 66.02C3.66657 66.02 2.47127 64.8246 2.47127 63.3519V63.0355H56.5803V63.3519C56.5803 64.8246 55.385 66.02 53.9123 66.02H5.13927ZM74.8933 71.6489C74.8933 73.1294 73.6902 74.3325 72.2097 74.3325H53.7447C52.2642 74.3325 51.0611 73.1294 51.0611 71.6489V68.4927H53.9127C56.7486 68.4927 59.0533 66.188 59.0533 63.3521V36.2621H71.0493C71.7329 36.2621 72.2876 35.7074 72.2876 35.0238V31.0471C72.2876 30.3636 71.7329 29.8088 71.0493 29.8088H59.0533V29.7463C59.0533 27.1174 57.065 24.9417 54.5142 24.6409L55.7486 21.6565C55.9673 21.1291 55.9048 20.5276 55.5806 20.0549C55.147 19.422 54.6158 18.8596 53.9947 18.3674H72.2057C73.6862 18.3674 74.8893 19.5704 74.8893 21.0509V71.641L74.8933 71.6489ZM59.0533 33.7899V32.2859H69.8153V33.7899H59.0533ZM42.7093 47.2079V54.4306C42.7093 55.1141 42.1546 55.6688 41.471 55.6688C40.7874 55.6688 40.2327 55.1142 40.2327 54.4306V47.2079C40.2327 46.5243 40.7874 45.9696 41.471 45.9696C42.1546 45.9696 42.7093 46.5242 42.7093 47.2079ZM34.9281 45.9696H32.5336C31.1586 45.9696 30.0375 47.0907 30.0375 48.4657V53.1726C30.0375 54.5476 31.1586 55.6688 32.5336 55.6688H34.9281C36.3031 55.6688 37.4242 54.5476 37.4242 53.1726V48.4657C37.4242 47.0907 36.3031 45.9696 34.9281 45.9696ZM34.9515 53.1726C34.9515 53.1844 34.9437 53.1961 34.9281 53.1961H32.5336C32.5219 53.1961 32.5101 53.1883 32.5101 53.1726V48.4657C32.5101 48.4539 32.5179 48.4422 32.5336 48.4422H34.9281C34.9398 48.4422 34.9515 48.4539 34.9515 48.4657V53.1726ZM40.2171 35.1456H37.8226C36.4476 35.1456 35.3265 36.2668 35.3265 37.6418V42.3488C35.3265 43.7238 36.4476 44.8449 37.8226 44.8449H40.2171C41.5921 44.8449 42.7132 43.7238 42.7132 42.3488V37.6418C42.7132 36.2668 41.5921 35.1456 40.2171 35.1456ZM40.2366 42.3488C40.2366 42.3605 40.2288 42.3722 40.2132 42.3722H37.8187C37.807 42.3722 37.7953 42.3605 37.7953 42.3488V37.6418C37.7953 37.63 37.8031 37.6183 37.8187 37.6183H40.2132C40.2249 37.6183 40.2366 37.6261 40.2366 37.6418V42.3488ZM30.9319 43.6066V36.3839C30.9319 35.7003 31.4866 35.1455 32.1702 35.1455C32.8538 35.1455 33.4085 35.7002 33.4085 36.3839V43.6066C33.4085 44.2901 32.8539 44.8449 32.1702 44.8449C31.4867 44.8449 30.9319 44.2902 30.9319 43.6066Z" fill="white"/>
</svg>
