<svg width="91" height="84" viewBox="0 0 91 84" fill="none" xmlns="http://www.w3.org/2000/svg">
<path d="M90.6609 31.9221C89.4617 26.5823 85.0594 22.5002 79.72 21.6521C80.9817 17.7224 79.97 13.4021 77.0208 10.3711C74.3216 7.6016 70.431 6.4492 66.6688 7.25C65.4774 3 61.5907 0 57.0907 0C51.6024 0 47.1298 4.4688 47.1298 9.9609V73.7619C47.1298 79.2502 51.5986 83.7228 57.0907 83.7228C62.2313 83.7228 66.4696 79.8126 66.9891 74.8126C70.3797 75.0118 73.6297 73.4923 75.6493 70.7032C77.5282 68.1016 78.0282 64.7735 77.0282 61.7618C80.329 60.9805 83.0594 58.5313 84.1571 55.2813C85.1063 52.4922 84.7664 49.4727 83.286 46.9805C88.8993 44.3321 92.0398 38.0749 90.6609 31.9221ZM57.079 74.0821C55.7509 74.0821 54.6688 73.004 54.6688 71.6719C54.6688 70.3438 55.7469 69.2617 57.079 69.2617C58.4071 69.2617 59.4892 70.3398 59.4892 71.6719C59.4892 73.0039 58.4111 74.0821 57.079 74.0821ZM81.559 45.6721C81.2777 45.7737 81.0707 46.0002 80.9886 46.2815C80.9105 46.5627 80.9691 46.8713 81.1488 47.1096C82.809 49.258 83.2777 52.0901 82.4105 54.6682C81.3988 57.6291 78.7503 59.758 75.6488 60.1096C75.348 60.1408 75.0902 60.3205 74.9379 60.5783C74.7894 60.8401 74.7777 61.1565 74.9066 61.4299C76.1566 64.0901 75.8675 67.2307 74.1449 69.6096C72.3363 72.1096 69.3168 73.3596 66.266 72.8713C65.9965 72.8322 65.7269 72.9026 65.516 73.0822C65.3051 73.2619 65.1879 73.5119 65.1879 73.7932C65.1762 77.9416 62.0395 81.3635 58.016 81.8244V75.8439C59.9262 75.4142 61.3558 73.715 61.3558 71.6837C61.3558 69.3321 59.4339 67.4142 57.0863 67.4142C54.7347 67.4142 52.8168 69.3361 52.8168 71.6837C52.8168 73.7228 54.2465 75.422 56.1566 75.8439V81.8244C52.1254 81.3634 48.9847 77.9338 48.9847 73.7853L48.9886 56.2153H55.4769L62.4886 61.5864C62.2386 62.1372 62.0784 62.7348 62.0784 63.3755C62.0784 65.7271 64.0003 67.645 66.3479 67.645C68.6995 67.645 70.6174 65.7231 70.6174 63.3755C70.6174 61.0239 68.6955 59.106 66.3479 59.106C65.3088 59.106 64.3674 59.4966 63.6174 60.1177L56.3479 54.5474C56.1878 54.4263 55.9885 54.356 55.7893 54.356H48.9885V47.0044H61.1795L68.1912 49.856C68.1522 50.0864 68.1209 50.3169 68.1209 50.5552C68.1209 52.9068 70.0428 54.8247 72.3904 54.8247C74.742 54.8247 76.6599 52.9028 76.6599 50.5552C76.6599 48.2036 74.738 46.2857 72.3904 46.2857C70.9412 46.2857 69.6599 47.0162 68.8787 48.1255L61.7068 45.2153C61.5974 45.1762 61.4763 45.145 61.3553 45.145H48.9763V37.7934H75.7573C76.1869 39.7036 77.8862 41.1332 79.9175 41.1332C82.2691 41.1332 84.187 39.2113 84.187 36.8637C84.187 34.5121 82.2651 32.5942 79.9175 32.5942C77.8784 32.5942 76.1792 34.0239 75.7573 35.934H48.9763V28.5824H57.6365C57.8474 28.5824 58.0466 28.5121 58.2068 28.391L65.7576 22.5394C66.4958 23.1488 67.4373 23.5394 68.4685 23.5394C70.8201 23.5394 72.738 21.6175 72.738 19.2699C72.738 16.9183 70.8161 15.0004 68.4685 15.0004C66.1169 15.0004 64.199 16.9223 64.199 19.2699C64.199 19.9183 64.3591 20.5316 64.6208 21.0785L57.32 26.7269H48.9802L48.9763 9.96488C48.9763 5.49608 52.6052 1.86328 57.0779 1.86328C57.9998 1.86328 58.8787 2.02344 59.7068 2.30469L54.6365 6.44529C54.4178 6.62498 54.2967 6.8867 54.2967 7.16404V12.1952C52.3865 12.6249 50.9569 14.3241 50.9569 16.3554C50.9569 18.707 52.8788 20.6249 55.2264 20.6249C57.578 20.6249 59.4881 18.7147 59.4881 16.3515C59.4881 14.3124 58.0584 12.6132 56.1483 12.1913V7.60154L61.5389 3.20314C63.3475 4.39454 64.66 6.29294 65.0584 8.55474C65.1092 8.81646 65.2576 9.04302 65.4881 9.18365C65.7185 9.32428 65.9881 9.35553 66.2498 9.28521C69.6287 8.25401 73.2381 9.16412 75.6912 11.6758C78.41 14.4649 79.1521 18.5469 77.5818 22.0738C77.4607 22.3551 77.4802 22.6754 77.6326 22.9332C77.7927 23.1949 78.0623 23.3629 78.3631 23.3824C83.4217 23.7105 87.7341 27.3941 88.843 32.3433C90.1086 37.9644 86.968 43.7023 81.5578 45.6713L81.559 45.6721ZM66.34 60.9651C67.6681 60.9651 68.7502 62.0432 68.7502 63.3753C68.7502 64.7034 67.6721 65.7855 66.34 65.7855C65.0119 65.7855 63.9298 64.7074 63.9298 63.3753C63.9298 62.0432 65.0079 60.9651 66.34 60.9651ZM69.9688 50.5551C69.9688 49.227 71.047 48.1449 72.3791 48.1449C73.7072 48.1449 74.7893 49.223 74.7893 50.5551C74.7893 51.8832 73.7112 52.9653 72.3791 52.9653C71.0471 52.9731 69.9688 51.895 69.9688 50.5551ZM77.5079 36.8751C77.5079 35.547 78.5861 34.4649 79.9182 34.4649C81.2463 34.4649 82.3284 35.543 82.3284 36.8751C82.3284 38.2032 81.2503 39.2853 79.9182 39.2853C78.5901 39.2931 77.5079 38.2033 77.5079 36.8751ZM66.059 19.2931C66.059 17.965 67.1371 16.8829 68.4692 16.8829C69.7973 16.8829 70.8794 17.961 70.8794 19.2931C70.8794 20.6212 69.8013 21.7033 68.4692 21.7033C67.1371 21.7033 66.059 20.6252 66.059 19.2931ZM55.219 13.9415C56.5471 13.9415 57.6292 15.0196 57.6292 16.3517C57.6292 17.6798 56.5511 18.7619 55.219 18.7619C53.8909 18.7619 52.8088 17.6838 52.8088 16.3517C52.8088 15.0236 53.8869 13.9415 55.219 13.9415ZM33.899 0.00349998C29.3482 0.00349998 25.5006 3.0738 24.3209 7.2535C20.4811 6.43319 16.5123 7.66366 13.7899 10.5621C10.9813 13.5621 10.0399 17.8004 11.2587 21.6641C8.68055 22.0743 6.25865 23.2422 4.32895 25.0157C2.11805 27.0469 0.637551 29.7969 0.168751 32.7462C-0.780469 38.6446 2.34845 44.4652 7.69995 46.9652C7.53979 47.2269 7.39917 47.4964 7.27026 47.7738C6.07886 50.2738 5.98116 53.184 7.00854 55.7543C8.22734 58.7934 10.8288 61.016 13.9577 61.7426C12.946 64.8012 13.4695 68.1723 15.4265 70.7934C17.446 73.5122 20.6765 74.9926 24.0046 74.7934C24.5242 79.7934 28.7741 83.7036 33.903 83.7036C39.3913 83.7036 43.8639 79.2348 43.8639 73.7427L43.8678 9.96569C43.86 4.47349 39.3873 0.00479031 33.899 0.00479031L33.899 0.00349998ZM42.0006 22.4015V22.4328C41.9498 25.5344 39.3795 28.0539 36.2818 28.0539C33.1334 28.0539 30.563 25.4836 30.563 22.3351C30.563 21.8233 30.1411 21.4054 29.6333 21.4054C29.1215 21.4054 28.7036 21.8272 28.7036 22.3351C28.7036 24.257 29.4223 26.007 30.602 27.3468C29.3832 27.835 28.3637 28.7569 27.7504 29.9561C26.9223 31.5772 26.9418 33.4952 27.809 35.0967C28.0472 35.546 28.6176 35.7178 29.0707 35.4757C29.5199 35.2374 29.6918 34.6671 29.4496 34.214C28.8793 33.1632 28.8714 31.8624 29.4105 30.8038C29.9886 29.6749 31.1097 28.9249 32.3597 28.8155C33.5081 29.5147 34.848 29.9171 36.2894 29.9171C38.5589 29.9171 40.6175 28.8976 42.0082 27.2882V73.7612C42.0082 78.23 38.3793 81.8628 33.9066 81.8628C29.4378 81.8628 25.805 78.2339 25.805 73.7612C25.805 72.1518 26.2738 70.601 27.1644 69.2729C27.4457 68.8432 27.3363 68.2729 26.9027 67.9838C26.7425 67.8744 26.5629 67.8236 26.391 67.8236C26.0902 67.8236 25.8011 67.9642 25.6214 68.2338C24.68 69.644 24.1214 71.2533 23.9808 72.933C21.2425 73.1244 18.5824 71.9135 16.9105 69.683C15.1293 67.2924 14.8089 64.1244 16.0824 61.4135C16.2113 61.1439 16.2035 60.8236 16.0512 60.5619C15.9027 60.3002 15.641 60.1205 15.3402 60.0931C12.3714 59.765 9.84023 57.8314 8.73083 55.054C7.87927 52.9329 7.9613 50.6244 8.94958 48.5658C9.91833 46.5267 11.7113 44.976 13.8598 44.3158C14.3481 44.1673 14.6215 43.6439 14.4692 43.1555C14.3207 42.6673 13.7973 42.3938 13.309 42.5462C11.5707 43.0852 10.0199 44.097 8.82846 45.4368C4.01986 43.3665 1.16826 38.2454 2.00816 33.0388C2.86754 27.7107 7.22696 23.738 12.6172 23.3786C12.9179 23.359 13.1953 23.1872 13.3476 22.9293C13.5078 22.6676 13.5273 22.3512 13.4062 22.07C11.875 18.6012 12.5664 14.5817 15.1562 11.832C17.4374 9.40227 20.7773 8.38277 23.996 9.08197C23.9648 9.37103 23.957 9.67181 23.957 9.96088C23.957 11.75 24.4374 13.5117 25.3554 15.0507C25.6171 15.4921 26.1835 15.6405 26.6249 15.371C27.0663 15.1093 27.2147 14.5429 26.9452 14.1015C26.2069 12.8515 25.8163 11.4218 25.8163 9.96089C25.8163 5.49209 29.4452 1.85929 33.9179 1.85929C38.3867 1.85929 42.0195 5.48819 42.0195 9.96089L42.0273 22.4019L42.0006 22.4015ZM27.8095 52.3115C29.1689 51.8428 30.5713 51.792 31.8799 52.0732C32.958 51.5927 33.7393 50.6318 33.9815 49.4638C34.2432 48.2021 33.8213 46.8857 32.8721 46.0146C32.4931 45.6631 32.4736 45.0849 32.8213 44.706C33.1728 44.3271 33.751 44.3076 34.1299 44.6552C35.5518 45.9638 36.1885 47.956 35.8018 49.8466C35.5518 51.0575 34.9112 52.1161 34.0127 52.8974C35.5635 53.7763 36.8135 55.206 37.4346 57.0185C37.6065 57.499 37.3447 58.0302 36.8565 58.1982C36.3682 58.3701 35.8448 58.1084 35.6768 57.6201C34.6456 54.6396 31.3877 53.0498 28.4073 54.0693C26.9659 54.5693 25.7978 55.6005 25.126 56.9677C24.4542 58.3388 24.3565 59.8974 24.8565 61.3388C25.0284 61.8193 24.7667 62.3505 24.2784 62.5185C24.1768 62.5498 24.0792 62.5693 23.9776 62.5693C23.587 62.5693 23.2276 62.331 23.0987 61.9404C22.4385 60.0302 22.5675 57.9716 23.4581 56.1513C24.3409 54.3232 25.8993 52.9638 27.8095 52.3115ZM21.2276 47.2724C21.0869 47.3427 20.9463 47.374 20.7979 47.374C20.458 47.374 20.1377 47.1943 19.9697 46.874C19.7315 46.413 19.9111 45.8545 20.3682 45.624C22.587 44.4756 23.5987 41.8428 22.7198 39.5029C22.2198 38.1943 21.2315 37.1826 19.919 36.6748C18.6299 36.163 17.1807 36.2255 15.9385 36.8349C15.4775 37.0654 14.919 36.874 14.7002 36.413C14.4697 35.9521 14.6611 35.3935 15.1221 35.1747C16.8213 34.3349 18.8213 34.2529 20.6026 34.956C22.3838 35.6552 23.7823 37.0771 24.462 38.8544C25.6808 42.0614 24.2901 45.6825 21.2276 47.2724ZM33.2196 62.7024C34.3798 63.8626 35.0204 65.4016 35.0204 67.0422C35.0204 68.6828 34.3797 70.2219 33.2196 71.382C33.0399 71.5617 32.7977 71.6515 32.5594 71.6515C32.3211 71.6515 32.0789 71.5617 31.8992 71.382C31.5398 71.0226 31.5398 70.4328 31.8992 70.0734C32.7078 69.2648 33.1492 68.1945 33.1492 67.0539C33.1492 65.9133 32.7078 64.8351 31.8992 64.0344C31.5398 63.675 31.5398 63.0852 31.8992 62.7258C32.2703 62.343 32.8602 62.343 33.2196 62.7024ZM37.7508 17.0614C37.7508 17.5731 37.3289 17.9911 36.8211 17.9911C36.3093 17.9911 35.8914 17.5692 35.8914 17.0614C35.8914 14.702 33.9695 12.7919 31.6219 12.7919C31.1102 12.7919 30.6922 12.37 30.6922 11.8622C30.6922 11.3505 31.1141 10.9325 31.6219 10.9325C35.0008 10.9325 37.7508 13.6825 37.7508 17.0614Z" fill="white"/>
</svg>
