<svg width="84" height="79" viewBox="0 0 84 79" fill="none" xmlns="http://www.w3.org/2000/svg">
<path d="M75.41 47.1092C75.0116 47.1092 74.621 47.1482 74.2381 47.199L70.2381 32.66C72.4569 31.6483 73.9998 29.41 73.9998 26.8202C73.9998 23.2811 71.1209 20.3905 67.5701 20.3905C66.242 20.3905 64.9998 20.8007 63.9685 21.4921L55.4099 12.371C56.4685 11.0624 57.1091 9.4022 57.1091 7.5898C57.1091 3.4101 53.7107 0 49.5193 0C45.3279 0 41.9295 3.3984 41.9295 7.5898C41.9295 8.12886 41.9881 8.6601 42.1014 9.1679L20.5624 16.9062C19.3905 14.746 17.1132 13.2773 14.4843 13.2773C10.6835 13.2773 7.58592 16.3789 7.58592 20.1757C7.58592 23.2538 9.61712 25.8749 12.414 26.7538L8.47262 51.7228C8.38278 51.7228 8.30075 51.7111 8.2109 51.7111C3.6797 51.7111 0 55.3908 0 59.922C0 64.4532 3.6797 68.1329 8.2109 68.1329C11.539 68.1329 14.4101 66.1329 15.6914 63.2735L43.7034 71.8243C43.6643 72.0938 43.6448 72.3751 43.6448 72.6524C43.6448 76.1133 46.4651 78.9336 49.926 78.9336C53.3869 78.9336 56.2072 76.1133 56.2072 72.6524C56.2072 71.711 55.9963 70.8243 55.6174 70.0118L69.2654 60.7227C70.7771 62.4336 72.9646 63.5118 75.4138 63.5118C79.945 63.5118 83.6247 59.8321 83.6247 55.3009C83.609 50.7892 79.9295 47.1092 75.41 47.1092ZM72.2577 47.742C70.3983 48.5115 68.8866 49.9608 68.0194 51.7615L60.0897 49.0896L66.2381 33.1096C66.6678 33.1994 67.1092 33.2502 67.5662 33.2502C67.8045 33.2502 68.035 33.2385 68.2655 33.2111L72.2577 47.742ZM57.6097 55.5193L59.348 50.9998L67.3597 53.6912C67.2816 54.0701 67.2386 54.4607 67.2191 54.8631L57.6097 55.5193ZM48.348 66.6013L44.7464 58.4529L48.8089 58.1716L48.8597 66.4919C48.6878 66.5193 48.5199 66.5505 48.348 66.6013ZM16.27 58.3591C16.1411 57.6989 15.9302 57.07 15.6489 56.4802L32.2579 46.0702C33.297 47.2108 34.797 47.9296 36.4571 47.9296C36.9181 47.9296 37.3556 47.871 37.7853 47.7694L41.6954 56.6092L16.27 58.3591ZM21.1294 22.0501L35.4104 23.8392L28.3987 32.7181L20.0198 24.3079C20.5198 23.6282 20.899 22.8704 21.1294 22.0501ZM45.6684 14.1282C46.5395 14.6399 47.5082 14.9875 48.5473 15.1164L48.5981 23.4172L39.2583 22.2453L45.6684 14.1282ZM53.9184 13.7805L62.4887 22.9016C62.0005 23.5305 61.6294 24.2414 61.3989 25.0227L50.6369 23.6789L50.5862 15.1086C51.8206 14.9406 52.9575 14.468 53.9184 13.7805ZM41.9304 40.6595L48.6804 37.3197L48.7312 45.2885L42.0906 43.058C42.1297 42.7885 42.1609 42.5189 42.1609 42.2377C42.1609 41.6791 42.0789 41.1595 41.9304 40.6595ZM50.7195 36.3079L62.3405 30.5462C62.8718 31.2845 63.5514 31.9056 64.3405 32.3665L58.1491 48.4365L50.778 45.956L50.7195 36.3079ZM50.6609 25.7419L61.1609 27.0505C61.1805 27.6286 61.2703 28.1911 61.4422 28.7302L50.7082 34.0388L50.6609 25.7419ZM48.6179 25.4802L48.6765 35.0388L41.0281 38.8279C39.989 37.4373 38.3289 36.5271 36.4695 36.5271C35.2703 36.5271 34.1609 36.8982 33.239 37.5388L29.8679 34.1599L37.7898 24.1289L48.6179 25.4802ZM36.4579 45.8902C34.4384 45.8902 32.7977 44.2496 32.7977 42.23C32.7977 40.2104 34.4383 38.5698 36.4579 38.5698C38.4774 38.5698 40.1181 40.2104 40.1181 42.23C40.1181 44.2496 38.4814 45.8902 36.4579 45.8902ZM28.5907 35.7692L31.7899 38.9801C31.1493 39.902 30.7704 41.0192 30.7704 42.2301C30.7704 42.9801 30.9189 43.691 31.1806 44.3395L14.5786 54.7375C14.4184 54.5383 14.2505 54.3469 14.0669 54.1672L28.5907 35.7692ZM39.6607 46.9412C40.399 46.4412 41.0123 45.7615 41.4498 44.9803L48.7506 47.4295L48.8014 56.1209L43.8717 56.4607L39.6607 46.9412ZM50.8987 66.4802L50.848 58.031L54.5589 57.781L51.1878 66.531C51.0979 66.4997 51.0003 66.4919 50.8987 66.4802ZM50.8402 55.9802L50.7894 48.1208L57.4183 50.3513L55.3675 55.6716L50.8402 55.9802ZM71.9571 26.8202C71.9571 29.2421 69.9884 31.2108 67.5666 31.2108C65.1447 31.2108 63.176 29.242 63.176 26.8202C63.176 24.3984 65.1448 22.4296 67.5666 22.4296C69.9885 22.4413 71.9571 24.4023 71.9571 26.8202ZM49.5272 2.05819C52.5858 2.05819 55.078 4.54649 55.078 7.60899C55.078 10.6676 52.5897 13.1598 49.5272 13.1598C46.4686 13.1598 43.9764 10.6715 43.9764 7.60899C43.9803 4.55039 46.4686 2.05819 49.5272 2.05819ZM42.7967 11.109C43.1365 11.7574 43.5662 12.3473 44.0662 12.8707L36.8865 21.9605L21.3745 20.0191C21.3627 19.6206 21.3237 19.2183 21.2455 18.8394L42.7967 11.109ZM9.62865 20.191C9.62865 17.5113 11.8084 15.3316 14.4881 15.3316C17.1678 15.3316 19.3475 17.5113 19.3475 20.191C19.3475 22.8707 17.1678 25.0504 14.4881 25.0504C11.8084 25.0504 9.62865 22.8707 9.62865 20.191ZM14.4373 27.0894H14.4958C16.027 27.0894 17.4372 26.5777 18.5856 25.7378L27.1442 34.3159L12.4642 52.9179C11.8549 52.5468 11.2025 52.2577 10.5033 52.0585L14.4373 27.0894ZM8.20675 66.1014C4.80835 66.1014 2.03485 63.3319 2.03485 59.9295C2.03485 56.5311 4.80435 53.7576 8.20675 53.7576C11.6052 53.7576 14.3787 56.5271 14.3787 59.9295C14.3787 63.3318 11.617 66.1014 8.20675 66.1014ZM44.2968 69.8787L16.2848 61.3279C16.3355 61.0193 16.3746 60.7068 16.3941 60.3865L42.5741 58.5857L46.4725 67.4138C45.5468 68.031 44.7968 68.8787 44.2968 69.8787ZM49.9179 76.9021C47.5781 76.9021 45.6796 75.0037 45.6796 72.6638C45.6796 70.3239 47.578 68.4255 49.9179 68.4255C52.2578 68.4255 54.1562 70.3239 54.1562 72.6638C54.1601 74.9997 52.25 76.9021 49.9179 76.9021ZM54.457 68.3396C54.0585 67.9177 53.5976 67.5505 53.0976 67.2615L56.8085 57.6209L67.3595 56.9021C67.5079 57.6639 67.7696 58.3904 68.1095 59.0623L54.457 68.3396ZM75.41 61.4919C72.0116 61.4919 69.2381 58.7224 69.2381 55.32C69.2381 51.9216 72.0076 49.1481 75.41 49.1481C78.8084 49.1481 81.5818 51.9176 81.5818 55.32C81.5701 58.7184 78.8085 61.4919 75.41 61.4919Z" fill="white"/>
</svg>
