<svg width="24" height="24" viewBox="0 0 24 24" fill="none" xmlns="http://www.w3.org/2000/svg">
<g filter="url(#filter0_d_5_3)">
<path d="M9 19C4 20.5 4 16.5 2 16M16 22V18.13C16.0375 17.6532 15.9731 17.1738 15.811 16.7238C15.6489 16.2738 15.3929 15.8634 15.06 15.52C18.2 15.17 21.5 13.98 21.5 8.52C21.4997 7.12383 20.9627 5.7812 20 4.77C20.4559 3.54851 20.4236 2.19835 19.91 0.999999C19.91 0.999999 18.73 0.649999 16 2.48C13.708 1.85882 11.292 1.85882 9 2.48C6.27 0.649999 5.09 0.999999 5.09 0.999999C4.57638 2.19835 4.54414 3.54851 5 4.77C4.03013 5.7887 3.49252 7.14346 3.5 8.55C3.5 13.97 6.8 15.16 9.94 15.55C9.611 15.89 9.35726 16.2954 9.19531 16.7399C9.03335 17.1844 8.96681 17.6581 9 18.13V22" stroke="white" stroke-width="2" stroke-linecap="round" stroke-linejoin="round" shape-rendering="crispEdges"/>
</g>
<defs>
<filter id="filter0_d_5_3" x="-3.00024" y="-0.0267944" width="29.5002" height="31.0268" filterUnits="userSpaceOnUse" color-interpolation-filters="sRGB">
<feFlood flood-opacity="0" result="BackgroundImageFix"/>
<feColorMatrix in="SourceAlpha" type="matrix" values="0 0 0 0 0 0 0 0 0 0 0 0 0 0 0 0 0 0 127 0" result="hardAlpha"/>
<feOffset dy="4"/>
<feGaussianBlur stdDeviation="2"/>
<feComposite in2="hardAlpha" operator="out"/>
<feColorMatrix type="matrix" values="0 0 0 0 0 0 0 0 0 0 0 0 0 0 0 0 0 0 0.25 0"/>
<feBlend mode="normal" in2="BackgroundImageFix" result="effect1_dropShadow_5_3"/>
<feBlend mode="normal" in="SourceGraphic" in2="effect1_dropShadow_5_3" result="shape"/>
</filter>
</defs>
</svg>
