<svg width="189" height="44" viewBox="0 0 189 44" fill="none" xmlns="http://www.w3.org/2000/svg">
<path d="M3.96669 43.5117C2.70549 43.5117 1.72908 43.166 1.03748 42.4744C0.345831 41.742 0 40.7453 0 39.484V4.27181C0 2.9699 0.325473 1.99349 0.976411 1.34256C1.66805 0.65095 2.64446 0.305145 3.90567 0.305145C5.16687 0.305145 6.12297 0.65095 6.77396 1.34256C7.46556 1.99349 7.81135 2.9699 7.81135 4.27181V36.8599H25.509C26.6075 36.8599 27.4415 37.1447 28.0111 37.7143C28.6213 38.2838 28.9265 39.0975 28.9265 40.1553C28.9265 41.2131 28.6213 42.0472 28.0111 42.6574C27.4415 43.227 26.6075 43.5117 25.509 43.5117H3.96669Z" fill="#F2784B"/>
<path d="M131.451 44C130.311 44 129.437 43.6745 128.826 43.0236C128.216 42.3726 127.911 41.4775 127.911 40.3384V3.66158C127.911 2.48172 128.236 1.58665 128.887 0.97639C129.538 0.325452 130.433 0 131.573 0C132.59 0 133.383 0.203402 133.953 0.610236C134.563 0.976205 135.112 1.62716 135.6 2.5631L150.674 30.4522H148.721L163.794 2.5631C164.283 1.62735 164.812 0.976397 165.381 0.610236C165.951 0.203402 166.744 0 167.761 0C168.9 0 169.775 0.325452 170.385 0.97639C170.996 1.58665 171.301 2.48172 171.301 3.66158V40.3384C171.301 41.4775 170.996 42.3726 170.385 43.0236C169.816 43.6745 168.941 44 167.761 44C166.622 44 165.747 43.6745 165.137 43.0236C164.527 42.3726 164.222 41.4775 164.222 40.3384V12.0832H165.564L152.749 35.4563C152.342 36.1479 151.915 36.6565 151.467 36.982C151.02 37.3076 150.409 37.4704 149.636 37.4704C148.863 37.4704 148.233 37.3076 147.745 36.982C147.256 36.616 146.829 36.1075 146.463 35.4563L133.525 12.0222H134.99V40.3384C134.99 41.4775 134.685 42.3726 134.075 43.0236C133.505 43.6745 132.63 44 131.451 44Z" fill="#F2784B"/>
<path d="M184.665 44C183.404 44 182.428 43.6542 181.736 42.9625C181.085 42.2302 180.76 41.2334 180.76 39.9722V4.02774C180.76 2.72582 181.085 1.72907 181.736 1.03746C182.428 0.34581 183.404 0 184.665 0C185.927 0 186.883 0.34581 187.534 1.03746C188.225 1.72907 188.571 2.72582 188.571 4.02774V39.9722C188.571 41.2334 188.246 42.2302 187.595 42.9625C186.944 43.6542 185.967 44 184.665 44Z" fill="#F2784B"/>
<path fill-rule="evenodd" clip-rule="evenodd" d="M61.7445 12.3352C56.5281 7.12266 47.973 7.11882 42.761 12.3352C34.747 20.3453 39.7393 34.3565 51.2619 35.1943V35.237C55.3654 35.237 58.6923 34.3753 61.7453 31.3189L86.4908 6.57345C99.9259 -6.86168 123.291 2.52784 123.291 21.8287C123.291 41.1295 99.9259 50.519 86.4908 37.0839L80.884 31.4733L86.6453 25.7121L92.252 31.3188C100.579 39.6458 115.147 33.8806 115.147 21.8249C115.147 9.76921 100.576 4.0077 92.252 12.331L67.5025 37.0834C54.1139 50.472 30.7018 41.1792 30.7018 21.8282C30.7018 2.53115 54.0634 -6.86617 67.5025 6.57293L73.1131 12.1835L67.3519 17.9447L61.7445 12.3352Z" fill="#F2784B"/>
</svg>
