<svg width="94" height="44" viewBox="0 0 94 44" fill="none" xmlns="http://www.w3.org/2000/svg">
<path fill-rule="evenodd" clip-rule="evenodd" d="M31.382 12.2054C26.1086 6.93591 17.46 6.93201 12.191 12.2054C4.0894 20.3031 9.1363 34.4674 20.7848 35.3144V35.3574C24.9332 35.3574 28.2965 34.4863 31.3828 31.3965L56.3988 6.38048C69.9808 -7.20152 93.6018 2.29068 93.6018 21.8025C93.6018 41.3143 69.9808 50.8065 56.3988 37.2245L50.7308 31.5526L56.555 25.7284L62.223 31.3964C70.641 39.8144 85.368 33.9862 85.368 21.7987C85.368 9.61118 70.638 3.78668 62.223 12.201L37.203 37.224C23.668 50.759 0 41.3646 0 21.802C0 2.29398 23.617 -7.20602 37.203 6.37998L42.8749 12.0519L37.0507 17.8761L31.382 12.2054Z" fill="#EB6331"/>
</svg>
